HIERARCHY
ROOT Root
{
  OFFSET 0.0 0.0 0.0
  CHANNELS 6 Xposition Yposition Zposition Zrotation Yrotation Xrotation
  JOINT Hips
  {
    OFFSET 0.0 100.0 0.0
    CHANNELS 6 Xposition Yposition Zposition Zrotation Yrotation Xrotation
    JOINT Spine1
    {
      OFFSET -0.013727 5.003763 -0.053727
      CHANNELS 3 Zrotation Yrotation Xrotation
      JOINT Spine2
      {
        OFFSET -0.0 7.125301 -0.029825
        CHANNELS 3 Zrotation Yrotation Xrotation
        JOINT Chest
        {
          OFFSET -1e-06 7.550063 -0.815971
          CHANNELS 3 Zrotation Yrotation Xrotation
          JOINT Neck1
          {
            OFFSET -0.181677 26.311295 -0.553348
            CHANNELS 3 Zrotation Yrotation Xrotation
            JOINT Neck2
            {
              OFFSET -3e-06 7.709397 2.302585
              CHANNELS 3 Zrotation Yrotation Xrotation
              JOINT Head
              {
                OFFSET -5e-06 6.128916 1.953709
                CHANNELS 3 Zrotation Yrotation Xrotation
                JOINT HeadEnd
                {
                  OFFSET 0.003598 16.065403 -1.835379
                  CHANNELS 3 Zrotation Yrotation Xrotation
                }
                JOINT Jaw
                {
                  OFFSET 0.002637 0.475592 3.094941
                  CHANNELS 3 Zrotation Yrotation Xrotation
                }
                JOINT LeftEye
                {
                  OFFSET 3.206381 5.380205 7.586883
                  CHANNELS 3 Zrotation Yrotation Xrotation
                }
                JOINT RightEye
                {
                  OFFSET -3.22244 5.361869 7.558234
                  CHANNELS 3 Zrotation Yrotation Xrotation
                }
              }
            }
          }
          JOINT LeftShoulder
          {
            OFFSET 1.621652 23.237164 5.113413
            CHANNELS 3 Zrotation Yrotation Xrotation
            JOINT LeftArm
            {
              OFFSET 14.919846 2e-06 -5.502326
              CHANNELS 3 Zrotation Yrotation Xrotation
              JOINT LeftForeArm
              {
                OFFSET 28.739307 0.0 -0.002588
                CHANNELS 3 Zrotation Yrotation Xrotation
                JOINT LeftHand
                {
                  OFFSET 27.093981 -1e-06 0.002609
                  CHANNELS 3 Zrotation Yrotation Xrotation
                  JOINT LeftHandThumb1
                  {
                    OFFSET 2.276482 -1.392045 3.191413
                    CHANNELS 3 Zrotation Yrotation Xrotation
                    JOINT LeftHandThumb2
                    {
                      OFFSET 4.012836 -1.828127 1.641654
                      CHANNELS 3 Zrotation Yrotation Xrotation
                      JOINT LeftHandThumb3
                      {
                        OFFSET 2.798515 0.0 -3e-06
                        CHANNELS 3 Zrotation Yrotation Xrotation
                        JOINT LeftHandThumbEnd
                        {
                          OFFSET 3.180793 -4e-06 4e-06
                          CHANNELS 3 Zrotation Yrotation Xrotation
                        }
                      }
                    }
                  }
                  JOINT LeftHandIndex1
                  {
                    OFFSET 3.247555 -0.531998 2.296169
                    CHANNELS 3 Zrotation Yrotation Xrotation
                    JOINT LeftHandIndex2
                    {
                      OFFSET 6.364578 0.01206 0.1786
                      CHANNELS 3 Zrotation Yrotation Xrotation
                      JOINT LeftHandIndex3
                      {
                        OFFSET 3.662364 0.0 0.0
                        CHANNELS 3 Zrotation Yrotation Xrotation
                        JOINT LeftHandIndex4
                        {
                          OFFSET 2.329242 4e-06 4e-06
                          CHANNELS 3 Zrotation Yrotation Xrotation
                          JOINT LeftHandIndexEnd
                          {
                            OFFSET 2.759615 -0.180537 -0.113024
                            CHANNELS 3 Zrotation Yrotation Xrotation
                          }
                        }
                      }
                    }
                  }
                  JOINT LeftHandMiddle1
                  {
                    OFFSET 3.163495 0.240981 1.000332
                    CHANNELS 3 Zrotation Yrotation Xrotation
                    JOINT LeftHandMiddle2
                    {
                      OFFSET 6.19078 -0.259278 -1.002548
                      CHANNELS 3 Zrotation Yrotation Xrotation
                      JOINT LeftHandMiddle3
                      {
                        OFFSET 4.35652 -4e-06 -1e-06
                        CHANNELS 3 Zrotation Yrotation Xrotation
                        JOINT LeftHandMiddle4
                        {
                          OFFSET 2.996877 -8e-06 0.0
                          CHANNELS 3 Zrotation Yrotation Xrotation
                          JOINT LeftHandMiddleEnd
                          {
                            OFFSET 2.304287 -0.294569 -0.031741
                            CHANNELS 3 Zrotation Yrotation Xrotation
                          }
                        }
                      }
                    }
                  }
                  JOINT LeftHandRing1
                  {
                    OFFSET 2.882643 -0.053652 -0.322543
                    CHANNELS 3 Zrotation Yrotation Xrotation
                    JOINT LeftHandRing2
                    {
                      OFFSET 5.854541 -0.486202 -1.373841
                      CHANNELS 3 Zrotation Yrotation Xrotation
                      JOINT LeftHandRing3
                      {
                        OFFSET 4.350578 0.0 3e-06
                        CHANNELS 3 Zrotation Yrotation Xrotation
                        JOINT LeftHandRing4
                        {
                          OFFSET 2.651321 7e-06 2e-06
                          CHANNELS 3 Zrotation Yrotation Xrotation
                          JOINT LeftHandRingEnd
                          {
                            OFFSET 1.936105 0.077687 -7.1e-05
                            CHANNELS 3 Zrotation Yrotation Xrotation
                          }
                        }
                      }
                    }
                  }
                  JOINT LeftHandPinky1
                  {
                    OFFSET 2.8655 -0.310005 -1.600378
                    CHANNELS 3 Zrotation Yrotation Xrotation
                    JOINT LeftHandPinky2
                    {
                      OFFSET 5.087849 -1.331141 -1.77123
                      CHANNELS 3 Zrotation Yrotation Xrotation
                      JOINT LeftHandPinky3
                      {
                        OFFSET 3.070974 4e-06 0.0
                        CHANNELS 3 Zrotation Yrotation Xrotation
                        JOINT LeftHandPinky4
                        {
                          OFFSET 1.549672 0.0 1e-06
                          CHANNELS 3 Zrotation Yrotation Xrotation
                          JOINT LeftHandPinkyEnd
                          {
                            OFFSET 1.944893 -0.157802 0.057219
                            CHANNELS 3 Zrotation Yrotation Xrotation
                          }
                        }
                      }
                    }
                  }
                }
              }
            }
          }
          JOINT RightShoulder
          {
            OFFSET -1.380118 23.180309 5.214158
            CHANNELS 3 Zrotation Yrotation Xrotation
            JOINT RightArm
            {
              OFFSET -15.037196 1.2e-05 -5.545604
              CHANNELS 3 Zrotation Yrotation Xrotation
              JOINT RightForeArm
              {
                OFFSET -28.736639 2e-06 -0.002597
                CHANNELS 3 Zrotation Yrotation Xrotation
                JOINT RightHand
                {
                  OFFSET -27.133619 -0.0 0.002613
                  CHANNELS 3 Zrotation Yrotation Xrotation
                  JOINT RightHandThumb1
                  {
                    OFFSET -2.274032 -1.383988 3.163127
                    CHANNELS 3 Zrotation Yrotation Xrotation
                    JOINT RightHandThumb2
                    {
                      OFFSET -4.011429 -1.827466 1.640914
                      CHANNELS 3 Zrotation Yrotation Xrotation
                      JOINT RightHandThumb3
                      {
                        OFFSET -2.794935 -4e-06 -3e-06
                        CHANNELS 3 Zrotation Yrotation Xrotation
                        JOINT RightHandThumbEnd
                        {
                          OFFSET -3.183852 4e-06 1e-06
                          CHANNELS 3 Zrotation Yrotation Xrotation
                        }
                      }
                    }
                  }
                  JOINT RightHandIndex1
                  {
                    OFFSET -3.253266 -0.520057 2.282866
                    CHANNELS 3 Zrotation Yrotation Xrotation
                    JOINT RightHandIndex2
                    {
                      OFFSET -6.341917 0.012471 0.178266
                      CHANNELS 3 Zrotation Yrotation Xrotation
                      JOINT RightHandIndex3
                      {
                        OFFSET -3.654871 -8e-06 -0.0
                        CHANNELS 3 Zrotation Yrotation Xrotation
                        JOINT RightHandIndex4
                        {
                          OFFSET -2.327586 0.0 1e-06
                          CHANNELS 3 Zrotation Yrotation Xrotation
                          JOINT RightHandIndexEnd
                          {
                            OFFSET -2.76179 -0.180656 -0.113078
                            CHANNELS 3 Zrotation Yrotation Xrotation
                          }
                        }
                      }
                    }
                  }
                  JOINT RightHandMiddle1
                  {
                    OFFSET -3.168106 0.246593 1.00103
                    CHANNELS 3 Zrotation Yrotation Xrotation
                    JOINT RightHandMiddle2
                    {
                      OFFSET -6.180828 -0.258836 -1.000895
                      CHANNELS 3 Zrotation Yrotation Xrotation
                      JOINT RightHandMiddle3
                      {
                        OFFSET -4.348901 0.0 -0.0
                        CHANNELS 3 Zrotation Yrotation Xrotation
                        JOINT RightHandMiddle4
                        {
                          OFFSET -3.00024 -4e-06 -2e-06
                          CHANNELS 3 Zrotation Yrotation Xrotation
                          JOINT RightHandMiddleEnd
                          {
                            OFFSET -2.30252 -0.29437 -0.031706
                            CHANNELS 3 Zrotation Yrotation Xrotation
                          }
                        }
                      }
                    }
                  }
                  JOINT RightHandRing1
                  {
                    OFFSET -2.88569 -0.067952 -0.308858
                    CHANNELS 3 Zrotation Yrotation Xrotation
                    JOINT RightHandRing2
                    {
                      OFFSET -5.854198 -0.48613 -1.373731
                      CHANNELS 3 Zrotation Yrotation Xrotation
                      JOINT RightHandRing3
                      {
                        OFFSET -4.33881 -4e-06 -0.0
                        CHANNELS 3 Zrotation Yrotation Xrotation
                        JOINT RightHandRing4
                        {
                          OFFSET -2.654903 -4e-06 4e-06
                          CHANNELS 3 Zrotation Yrotation Xrotation
                          JOINT RightHandRingEnd
                          {
                            OFFSET -1.933568 0.077527 -5.2e-05
                            CHANNELS 3 Zrotation Yrotation Xrotation
                          }
                        }
                      }
                    }
                  }
                  JOINT RightHandPinky1
                  {
                    OFFSET -2.866425 -0.342796 -1.584145
                    CHANNELS 3 Zrotation Yrotation Xrotation
                    JOINT RightHandPinky2
                    {
                      OFFSET -5.091371 -1.332055 -1.772385
                      CHANNELS 3 Zrotation Yrotation Xrotation
                      JOINT RightHandPinky3
                      {
                        OFFSET -3.062664 -4e-06 1e-06
                        CHANNELS 3 Zrotation Yrotation Xrotation
                        JOINT RightHandPinky4
                        {
                          OFFSET -1.546529 4e-06 -2e-06
                          CHANNELS 3 Zrotation Yrotation Xrotation
                          JOINT RightHandPinkyEnd
                          {
                            OFFSET -1.945119 -0.157718 0.057211
                            CHANNELS 3 Zrotation Yrotation Xrotation
                          }
                        }
                      }
                    }
                  }
                }
              }
            }
          }
        }
      }
    }
    JOINT LeftLeg
    {
      OFFSET 10.043214 -8.434526 2.595655
      CHANNELS 3 Zrotation Yrotation Xrotation
      JOINT LeftShin
      {
        OFFSET -1e-06 -43.221752 -0.802913
        CHANNELS 3 Zrotation Yrotation Xrotation
        JOINT LeftFoot
        {
          OFFSET 1e-06 -42.155094 -3.481523
          CHANNELS 3 Zrotation Yrotation Xrotation
          JOINT LeftToeBase
          {
            OFFSET 0.0 -5.059472 13.231529
            CHANNELS 3 Zrotation Yrotation Xrotation
            JOINT LeftToeEnd
            {
              OFFSET -0.009607 -1.647619 6.513017
              CHANNELS 3 Zrotation Yrotation Xrotation
            }
          }
        }
      }
    }
    JOINT RightLeg
    {
      OFFSET -10.047278 -8.29526 2.620317
      CHANNELS 3 Zrotation Yrotation Xrotation
      JOINT RightShin
      {
        OFFSET 1e-06 -43.362206 -0.805556
        CHANNELS 3 Zrotation Yrotation Xrotation
        JOINT RightFoot
        {
          OFFSET 2e-06 -42.117393 -3.478398
          CHANNELS 3 Zrotation Yrotation Xrotation
          JOINT RightToeBase
          {
            OFFSET -0.0 -5.079609 13.284196
            CHANNELS 3 Zrotation Yrotation Xrotation
            JOINT RightToeEnd
            {
              OFFSET 0.009532 -1.634378 6.460591
              CHANNELS 3 Zrotation Yrotation Xrotation
            }
          }
        }
      }
    }
  }
}
MOTION
Frames: 4
Frame Time: 0.03333333333333333
0.0 0.0 0.0 0.0 -0.0 0.0 -18.681406 92.590332 -11.975818 -1.525811 7.368196 11.263602 0.118398 -0.240537 15.483037 -0.555468 -0.031264 -0.110623 -0.321557 -3.255576 6.907574 7.364604 0.243736 1.508543 -1.301454 -0.472521 -3.638422 -0.308034 -1.950475 -5.658986 7.7e-05 -2.2e-05 4e-06 -0.012842 0.027589 -0.049274 0.720094 -3.755664 -10.811882 -0.75168 3.811307 -10.792624 35.437828 -32.497902 -10.743635 13.362248 -44.554974 -87.734802 0.474724 -21.668314 0.08697 4.612527 -0.310208 -58.980885 -5.882106 9.861292 0.702591 -10.936875 -0.360577 7.156209 2e-06 8.774833 -1e-06 -15.773895 18.979498 6.700123 -1.844033 2.498505 -2.507279 -10.163602 4.678947 4.621111 -20.976027 -6e-06 4e-06 -21.22629 2.451698 -3.593999 -0.0 -7e-06 -1e-06 -1.362681 2.240799 -0.746322 -21.334925 0.584908 3.008327 -13.821216 -3e-06 4e-06 -23.887178 -0.249079 -0.839481 -60.309601 2.814739 -1.504638 -0.294025 1.679689 0.833257 -14.218214 0.093213 1.300582 -34.212055 -0.287565 0.967177 -20.033218 0.964538 1.212847 -0.0 1e-06 0.0 -3.440389 0.788234 0.501657 -15.928192 -3.167314 2.99971 -6.338829 -0.0 2e-06 -18.123453 3.648185 -4.905671 -5e-06 0.0 -1e-06 -45.169624 28.583851 -24.670626 -1.841085 50.308784 -70.416855 0.228367 24.139023 -0.171185 -18.239454 -11.857853 -52.698502 2.243544 -5.255044 -3.180161 14.282905 -0.826596 6.952513 -2e-06 -12.69062 -0.0 15.976542 -17.666128 2.732837 1.665667 -1.955924 -2.878302 4.727804 -4.170593 4.99393 11.020539 2e-06 -0.0 12.10906 -3.735722 -2.866787 1e-06 -0.0 0.0 1.291987 -1.928552 -1.498091 14.800144 0.567468 3.865614 14.242586 -1.341739 -6.660665 19.631989 0.143926 -0.648245 50.022369 -0.518096 -6.295019 0.353029 -1.511152 -0.031941 20.222809 3.684314 2.316636 18.787291 3e-06 1e-06 10.751642 -0.47987 1.397908 -1e-06 -0.0 0.0 3.27381 0.305947 -0.580111 21.486834 11.830389 2.26614 8.162935 0.0 1e-06 18.399103 -3.798992 -4.94058 3e-06 -1e-06 -0.0 11.159316 24.327888 -37.324921 -0.309277 -0.459542 39.925556 -12.676781 -10.256886 -9.28661 1.654513 -1.724231 -0.596798 0.0 -0.0 2e-06 -6.282722 -13.281078 -44.259823 0.154616 0.484132 29.900064 14.420946 10.435006 5.400497 -1.413033 1.000027 0.256144 0.0 -0.0 -1e-06 
0.0 0.0 0.0 0.0 -0.0 0.0 -18.669292 92.549606 -11.95108 -1.452987 7.478362 11.265054 0.150205 -0.230923 15.480247 -0.53285 -0.045988 -0.114004 -0.294361 -3.285816 6.883587 7.381171 0.273971 1.417439 -1.319072 -0.58554 -3.640186 -0.414365 -1.997946 -5.684538 7.7e-05 -2.2e-05 4e-06 -0.007207 0.016123 -0.045933 0.727844 -3.765383 -10.810525 -0.748779 3.798202 -10.789953 35.345982 -32.482296 -10.789849 13.701201 -44.559593 -87.841812 0.444162 -21.478149 0.13183 4.611767 -0.434025 -58.952034 -5.882106 9.861286 0.70259 -10.936873 -0.360575 7.156206 1e-06 8.774826 0.0 -15.763473 18.956358 6.696951 -1.844033 2.498504 -2.507278 -10.163601 4.678945 4.621109 -20.976023 -5e-06 4e-06 -21.226286 2.451696 -3.593998 -0.0 -6e-06 0.0 -1.362682 2.240798 -0.746323 -21.334913 0.584908 3.008325 -13.821213 -3e-06 2e-06 -23.887171 -0.249078 -0.839481 -60.254379 2.822902 -1.490358 -0.294025 1.679687 0.833256 -14.21821 0.093213 1.30058 -34.212051 -0.287564 0.967173 -20.033215 0.964536 1.212845 -0.0 1e-06 -0.0 -3.440389 0.788233 0.501656 -15.928185 -3.16731 2.999707 -6.338827 -1e-06 3e-06 -18.123449 3.648182 -4.905669 -4e-06 0.0 -1e-06 -45.116386 28.394798 -24.594467 -1.931447 50.407234 -70.453262 0.278983 24.297977 -0.120112 -18.204107 -11.775921 -52.801262 2.243541 -5.255036 -3.180157 14.282889 -0.826593 6.952504 -4e-06 -12.690604 0.0 15.97131 -17.656857 2.722408 1.665666 -1.955921 -2.878299 4.727798 -4.170586 4.993924 11.020528 4e-06 -0.0 12.109052 -3.735714 -2.866783 -0.0 0.0 0.0 1.291986 -1.92855 -1.498089 14.800125 0.567469 3.865608 14.242568 -1.341736 -6.660656 19.631968 0.143927 -0.648243 50.018311 -0.515613 -6.293391 0.353028 -1.51115 -0.03194 20.222788 3.684311 2.316631 18.78727 6e-06 1e-06 10.751626 -0.479869 1.397907 -0.0 -0.0 0.0 3.273806 0.305947 -0.580111 21.486811 11.830377 2.266135 8.162926 1e-06 1e-06 18.399078 -3.798985 -4.940572 3e-06 -0.0 -1e-06 11.055114 24.23061 -37.445381 -0.306424 -0.446107 40.04575 -12.626752 -10.294574 -9.331977 1.653325 -1.734536 -0.600964 0.0 -0.0 2e-06 -6.448563 -13.244981 -44.324951 0.15365 0.480988 30.165329 14.403211 10.348183 5.197973 -1.414726 1.006122 0.229207 0.0 -0.0 -1e-06 
0.0 0.0 0.0 0.0 -0.0 0.0 -18.649136 92.508919 -11.946718 -1.391837 7.555516 11.280359 0.178931 -0.210145 15.49373 -0.514545 -0.058939 -0.109025 -0.24773 -3.311712 6.868906 7.411322 0.287262 1.322467 -1.347316 -0.658724 -3.645654 -0.531015 -2.012166 -5.717059 7.7e-05 -2.2e-05 4e-06 -0.002458 0.005445 -0.045696 0.733775 -3.7728 -10.809344 -0.745923 3.784863 -10.785493 35.207531 -32.451473 -10.786488 14.022312 -44.52454 -87.924789 0.377469 -21.364445 0.180032 4.652677 -0.468952 -58.862385 -5.882104 9.861284 0.70259 -10.936871 -0.360578 7.156206 1e-06 8.774824 -2e-06 -15.764239 18.903948 6.66665 -1.844031 2.498504 -2.507277 -10.1636 4.678942 4.621109 -20.976023 -6e-06 5e-06 -21.226286 2.451696 -3.593996 2e-06 -6e-06 0.0 -1.362681 2.240798 -0.746323 -21.334913 0.584906 3.008326 -13.821213 -4e-06 4e-06 -23.887167 -0.24908 -0.839478 -60.170738 2.813136 -1.463317 -0.294024 1.679688 0.833256 -14.218208 0.093212 1.300582 -34.212048 -0.287565 0.967178 -20.033215 0.964537 1.212848 -1e-06 1e-06 -0.0 -3.440389 0.788232 0.501656 -15.928185 -3.167313 2.999709 -6.338826 -2e-06 3e-06 -18.123444 3.648182 -4.905666 -6e-06 1e-06 -2e-06 -45.100945 28.238213 -24.572313 -1.926081 50.487598 -70.477646 0.351856 24.452326 -0.059253 -18.162737 -11.685697 -52.834759 2.243541 -5.25504 -3.180159 14.282896 -0.826596 6.952507 1e-06 -12.690611 -0.0 15.967216 -17.648909 2.72862 1.665667 -1.955923 -2.8783 4.727801 -4.17059 4.993927 11.020529 2e-06 -0.0 12.109053 -3.735719 -2.866785 1e-06 -0.0 0.0 1.291985 -1.928551 -1.49809 14.800131 0.567467 3.865611 14.242575 -1.341739 -6.66066 19.631971 0.143924 -0.648244 50.040287 -0.503982 -6.295323 0.353029 -1.511151 -0.03194 20.222797 3.68431 2.316633 18.787283 2e-06 1e-06 10.751633 -0.47987 1.397907 -0.0 -0.0 0.0 3.273807 0.305947 -0.580111 21.48682 11.83038 2.266138 8.162928 1e-06 0.0 18.399084 -3.79899 -4.940577 3e-06 -1e-06 -0.0 11.039153 24.174223 -37.503147 -0.305387 -0.435008 40.178471 -12.615688 -10.376266 -9.351139 1.652158 -1.752592 -0.614738 0.0 -0.0 2e-06 -6.609325 -13.175742 -44.401924 0.155624 0.475609 30.379917 14.389141 10.254565 5.037943 -1.41455 1.018458 0.179073 0.0 -0.0 -1e-06 
0.0 0.0 0.0 0.0 -0.0 0.0 -18.616411 92.471458 -11.972885 -1.339803 7.60669 11.31231 0.208349 -0.185814 15.506038 -0.503975 -0.063665 -0.09432 -0.188727 -3.336171 6.875924 7.427022 0.287409 1.204402 -1.368014 -0.694049 -3.647912 -0.632 -2.018971 -5.74264 7.7e-05 -2.2e-05 4e-06 -0.001863 0.003577 -0.047877 0.734177 -3.77151 -10.809303 -0.745857 3.780695 -10.781899 35.041386 -32.398834 -10.722735 14.323503 -44.464985 -87.930214 0.292808 -21.305962 0.214105 4.694425 -0.445707 -58.77824 -5.882107 9.861295 0.702591 -10.936878 -0.360577 7.156213 0.0 8.774834 -2e-06 -15.763213 18.853025 6.621678 -1.844033 2.498507 -2.50728 -10.163605 4.678948 4.621114 -20.976034 -4e-06 5e-06 -21.226294 2.451699 -3.594 1e-06 -6e-06 -0.0 -1.362682 2.2408 -0.746325 -21.334925 0.584907 3.00833 -13.82122 -3e-06 5e-06 -23.887182 -0.249078 -0.839479 -60.089554 2.795827 -1.428933 -0.294025 1.679689 0.833256 -14.218217 0.093213 1.300585 -34.212067 -0.287563 0.96718 -20.033222 0.96454 1.212849 -0.0 1e-06 -0.0 -3.44039 0.788233 0.501656 -15.928194 -3.167314 2.999714 -6.33883 -2e-06 4e-06 -18.123459 3.648186 -4.905672 -4e-06 0.0 -1e-06 -45.126091 28.13415 -24.57345 -1.87609 50.523102 -70.528152 0.437624 24.569216 -0.005195 -18.10677 -11.616577 -52.814091 2.243541 -5.255041 -3.180158 14.282896 -0.826596 6.952511 -2e-06 -12.690616 1e-06 15.970246 -17.648867 2.751616 1.665666 -1.955922 -2.878301 4.7278 -4.170591 4.993929 11.020531 3e-06 1e-06 12.109055 -3.735719 -2.866784 1e-06 0.0 0.0 1.291986 -1.92855 -1.49809 14.800136 0.567468 3.865613 14.242573 -1.341738 -6.660659 19.631971 0.143925 -0.648242 50.066357 -0.500445 -6.292067 0.353029 -1.511152 -0.031939 20.222795 3.684312 2.316636 18.787281 3e-06 4e-06 10.751633 -0.479872 1.397909 -1e-06 -0.0 -0.0 3.273807 0.305947 -0.58011 21.486826 11.830384 2.26614 8.16293 -2e-06 2e-06 18.39909 -3.798992 -4.940576 2e-06 -1e-06 -0.0 10.938199 24.145512 -37.643497 -0.304537 -0.429691 40.315762 -12.509672 -10.476629 -9.407665 1.652721 -1.770603 -0.650862 0.0 -1e-06 2e-06 -6.764591 -13.085308 -44.485538 0.156789 0.469913 30.517153 14.367806 10.167867 4.937816 -1.413863 1.027168 0.108297 0.0 -0.0 -1e-06 
